{"asset":{"version":"2.0","generator":"babylon.js glTF exporter for 3dsmax 2019 v20200312.5"},"scene":0,"scenes":[{"nodes":[0,1,3,5]}],"nodes":[{"mesh":0,"name":"SM_Dirt_Mound_D_4"},{"children":[2],"name":"SM_S_Soul_Tree2_19"},{"mesh":1,"translation":[-0.287940949,0.06060405,0.419444948],"rotation":[0.0,0.0,0.21643956,0.976296067],"name":"SM_S_Soul_Tree2_19_LOD1"},{"children":[4],"name":"SM_S_Soul_bush_22"},{"mesh":2,"translation":[0.489393383,0.213003278,0.2999212],"name":"SM_S_Soul_bush_22_LOD1"},{"name":"Default light"}],"meshes":[{"primitives":[{"attributes":{"POSITION":1,"NORMAL":2,"COLOR_0":3,"TEXCOORD_0":4,"TEXCOORD_1":5},"indices":0,"material":0}],"name":"SM_Dirt_Mound_D_4"},{"primitives":[{"attributes":{"POSITION":7,"NORMAL":8,"TEXCOORD_0":9,"TEXCOORD_1":10},"indices":6,"material":0}],"name":"SM_S_Soul_Tree2_19_LOD1"},{"primitives":[{"attributes":{"POSITION":12,"NORMAL":13,"TEXCOORD_0":14,"TEXCOORD_1":15},"indices":11,"material":0}],"name":"SM_S_Soul_bush_22_LOD1"}],"accessors":[{"bufferView":0,"componentType":5123,"count":660,"type":"SCALAR","name":"accessorIndices"},{"bufferView":1,"componentType":5126,"count":660,"max":[0.9039482,0.402115554,1.37364244],"min":[-0.9038786,-0.0233612675,-1.34210646],"type":"VEC3","name":"accessorPositions"},{"bufferView":1,"byteOffset":7920,"componentType":5126,"count":660,"type":"VEC3","name":"accessorNormals"},{"bufferView":2,"componentType":5126,"count":660,"type":"VEC4","name":"accessorColors"},{"bufferView":3,"componentType":5126,"count":660,"type":"VEC2","name":"accessorUVs"},{"bufferView":3,"byteOffset":5280,"componentType":5126,"count":660,"type":"VEC2","name":"accessorUV2s"},{"bufferView":0,"byteOffset":1320,"componentType":5123,"count":1467,"type":"SCALAR","name":"accessorIndices"},{"bufferView":1,"byteOffset":15840,"componentType":5126,"count":1467,"max":[3.01719069,4.32920027,2.268842],"min":[-3.444908,-0.0007960224,-2.72935081],"type":"VEC3","name":"accessorPositions"},{"bufferView":1,"byteOffset":33444,"componentType":5126,"count":1467,"type":"VEC3","name":"accessorNormals"},{"bufferView":3,"byteOffset":10560,"componentType":5126,"count":1467,"type":"VEC2","name":"accessorUVs"},{"bufferView":3,"byteOffset":22296,"componentType":5126,"count":1467,"type":"VEC2","name":"accessorUV2s"},{"bufferView":0,"byteOffset":4256,"componentType":5123,"count":1458,"type":"SCALAR","name":"accessorIndices"},{"bufferView":1,"byteOffset":51048,"componentType":5126,"count":1458,"max":[4.92316,15.0827227,4.229731],"min":[-4.7593956,0.0274717975,-3.85593748],"type":"VEC3","name":"accessorPositions"},{"bufferView":1,"byteOffset":68544,"componentType":5126,"count":1458,"type":"VEC3","name":"accessorNormals"},{"bufferView":3,"byteOffset":34032,"componentType":5126,"count":1458,"type":"VEC2","name":"accessorUVs"},{"bufferView":3,"byteOffset":45696,"componentType":5126,"count":1458,"type":"VEC2","name":"accessorUV2s"}],"bufferViews":[{"buffer":0,"byteLength":7172,"name":"bufferViewScalar"},{"buffer":0,"byteOffset":7172,"byteLength":86040,"byteStride":12,"name":"bufferViewFloatVec3"},{"buffer":0,"byteOffset":93212,"byteLength":10560,"byteStride":16,"name":"bufferViewFloatVec4"},{"buffer":0,"byteOffset":103772,"byteLength":57360,"byteStride":8,"name":"bufferViewFloatVec2"}],"buffers":[{"uri":"Dead_Tree.bin","byteLength":161132}],"materials":[{"pbrMetallicRoughness":{"baseColorFactor":[0.0,0.0,0.0,1.0],"metallicFactor":0.0,"roughnessFactor":0.245269522},"name":"DARK"}]}