{"asset":{"version":"2.0","generator":"babylon.js glTF exporter for 3dsmax 2019 v20200312.5"},"scene":0,"scenes":[{"nodes":[0,1,2,3]}],"nodes":[{"mesh":0,"translation":[-0.0179901812,0.0,0.08993889],"name":"default"},{"mesh":1,"translation":[-0.0179901812,0.0,0.08993889],"name":"Eyelashes"},{"mesh":2,"translation":[-0.0179901812,0.0,0.08993889],"name":"Body"},{"name":"Default light"}],"meshes":[{"primitives":[{"attributes":{"POSITION":1,"NORMAL":2,"TEXCOORD_0":3},"indices":0,"material":0}],"name":"default"},{"primitives":[{"attributes":{"POSITION":5,"NORMAL":6,"TEXCOORD_0":7},"indices":4,"material":0}],"name":"Eyelashes"},{"primitives":[{"attributes":{"POSITION":9,"NORMAL":10,"TEXCOORD_0":11},"indices":8,"material":0}],"name":"Body"}],"accessors":[{"bufferView":0,"componentType":5123,"count":4560,"type":"SCALAR","name":"accessorIndices"},{"bufferView":1,"componentType":5126,"count":4560,"max":[0.118544213,0.5951737,0.27203384],"min":[-0.117545031,0.506212234,0.182298],"type":"VEC3","name":"accessorPositions"},{"bufferView":1,"byteOffset":54720,"componentType":5126,"count":4560,"type":"VEC3","name":"accessorNormals"},{"bufferView":2,"componentType":5126,"count":4560,"type":"VEC2","name":"accessorUVs"},{"bufferView":0,"byteOffset":9120,"componentType":5123,"count":342,"type":"SCALAR","name":"accessorIndices"},{"bufferView":1,"byteOffset":109440,"componentType":5126,"count":342,"max":[0.140701249,0.561087,0.295258462],"min":[-0.14177154,0.5075169,0.234060466],"type":"VEC3","name":"accessorPositions"},{"bufferView":1,"byteOffset":113544,"componentType":5126,"count":342,"type":"VEC3","name":"accessorNormals"},{"bufferView":2,"byteOffset":36480,"componentType":5126,"count":342,"type":"VEC2","name":"accessorUVs"},{"bufferView":0,"byteOffset":9804,"componentType":5123,"count":37308,"type":"SCALAR","name":"accessorIndices"},{"bufferView":1,"byteOffset":117648,"componentType":5126,"count":37308,"max":[0.311535954,0.838234067,0.3673697],"min":[-0.32173273,-0.0123655321,-0.339367],"type":"VEC3","name":"accessorPositions"},{"bufferView":1,"byteOffset":565344,"componentType":5126,"count":37308,"type":"VEC3","name":"accessorNormals"},{"bufferView":2,"byteOffset":39216,"componentType":5126,"count":37308,"type":"VEC2","name":"accessorUVs"}],"bufferViews":[{"buffer":0,"byteLength":84420,"name":"bufferViewScalar"},{"buffer":0,"byteOffset":84420,"byteLength":1013040,"byteStride":12,"name":"bufferViewFloatVec3"},{"buffer":0,"byteOffset":1097460,"byteLength":337680,"byteStride":8,"name":"bufferViewFloatVec2"}],"buffers":[{"uri":"dot_head.bin","byteLength":1435140}],"materials":[{"pbrMetallicRoughness":{"baseColorTexture":{"index":0},"metallicRoughnessTexture":{"index":1}},"name":"GENERAL_HEAD_PackedMaterial0"}],"textures":[{"sampler":0,"source":0,"name":"GENERAL_HEAD_Packed0_Diffuse.png"},{"sampler":0,"source":1,"name":"MR_GENERAL_HEAD_Packed0_Diffuse.png_spec_GENERAL_HEAD_Packed0_Specular_gloss_256.png"}],"images":[{"uri":"./GENERAL_HEAD_Packed0_Diffuse.png"},{"uri":"./MR_GENERAL_HEAD_Packed0_Diffuse.png_spec_GENERAL_HEAD_Packed0_Specular_gloss_256.png"}],"samplers":[{"magFilter":9729,"minFilter":9987}]}