{"asset":{"version":"2.0","generator":"babylon.js glTF exporter for 3dsmax 2019 v20200312.5"},"scene":0,"scenes":[{"nodes":[0,1,2,3,4,5,6]}],"nodes":[{"mesh":0,"translation":[-0.000447089958,0.0,-0.0186099354],"rotation":[0.674055457,0.2136569,0.2136569,0.6740554],"name":"face_mesh"},{"mesh":0,"translation":[-0.0273846257,0.00138785911,0.006743536],"rotation":[-0.683501959,-0.383869141,-0.496077776,-0.3733316],"scale":[0.323645562,0.3236456,0.323645562],"name":"face_mesh001"},{"mesh":0,"translation":[0.06486664,-0.0107066482,-0.01970127],"rotation":[0.5257675,-0.251144856,-0.1976445,0.7883093],"scale":[0.99999994,1.0,1.0],"name":"face_mesh002"},{"mesh":0,"translation":[0.04009466,0.02750515,-0.00281435438],"rotation":[0.762450159,-0.245515376,0.0492878556,0.5966261],"scale":[0.323645532,0.323645562,0.323645562],"name":"face_mesh003"},{"mesh":0,"translation":[0.0295933429,-0.07508552,-0.012743759],"rotation":[-0.7504345,0.0238481425,-0.0474971458,0.6588045],"scale":[0.99999994,1.0,1.0],"name":"face_mesh004"},{"mesh":0,"translation":[0.0728124,-0.06797064,-0.0107687172],"rotation":[0.1323369,-0.7726691,-0.5181134,0.342093527],"scale":[0.323645562,0.323645562,0.323645562],"name":"face_mesh005"},{"name":"Default light"}],"meshes":[{"primitives":[{"attributes":{"POSITION":1,"NORMAL":2},"indices":0,"material":0}],"name":"face_mesh"}],"accessors":[{"bufferView":0,"componentType":5123,"count":52242,"type":"SCALAR","name":"accessorIndices"},{"bufferView":1,"componentType":5126,"count":52242,"max":[0.04391613,0.07423876,0.05349626],"min":[-0.0436929278,-0.07414862,-0.0530301742],"type":"VEC3","name":"accessorPositions"},{"bufferView":1,"byteOffset":626904,"componentType":5126,"count":52242,"type":"VEC3","name":"accessorNormals"}],"bufferViews":[{"buffer":0,"byteLength":104484,"name":"bufferViewScalar"},{"buffer":0,"byteOffset":104484,"byteLength":1253808,"byteStride":12,"name":"bufferViewFloatVec3"}],"buffers":[{"uri":"lumphead.bin","byteLength":1358292}],"materials":[{"pbrMetallicRoughness":{"baseColorFactor":[0.0,0.0,0.0,1.0],"metallicFactor":0.0,"roughnessFactor":0.450053632},"doubleSided":true,"name":"03 - Default"}]}