{"asset":{"version":"2.0","generator":"babylon.js glTF exporter for 3dsmax 2019 v20200312.5"},"scene":0,"scenes":[{"nodes":[0,1]}],"nodes":[{"mesh":0,"translation":[0.0066536516,-0.0288958866,-0.003540736],"rotation":[-0.736973763,0.0,0.0,0.6759214],"name":"Fish_w_Mask"},{"name":"Default light"}],"meshes":[{"primitives":[{"attributes":{"POSITION":1,"NORMAL":2,"TEXCOORD_0":3},"indices":0,"material":0},{"attributes":{"POSITION":5,"NORMAL":6,"TEXCOORD_0":7},"indices":4,"material":1}],"name":"Fish_w_Mask"}],"accessors":[{"bufferView":0,"componentType":5123,"count":4902,"type":"SCALAR","name":"accessorIndices"},{"bufferView":1,"componentType":5126,"count":4902,"max":[0.161488608,0.136011466,0.181751624],"min":[-0.150424868,0.04044133,0.0517298728],"type":"VEC3","name":"accessorPositions"},{"bufferView":1,"byteOffset":58824,"componentType":5126,"count":4902,"type":"VEC3","name":"accessorNormals"},{"bufferView":2,"componentType":5126,"count":4902,"type":"VEC2","name":"accessorUVs"},{"bufferView":0,"byteOffset":9804,"componentType":5123,"count":2943,"type":"SCALAR","name":"accessorIndices"},{"bufferView":1,"byteOffset":117648,"componentType":5126,"count":2943,"max":[0.220376059,0.386117131,0.514045537],"min":[-0.211008221,-0.4687764,-0.0313626677],"type":"VEC3","name":"accessorPositions"},{"bufferView":1,"byteOffset":152964,"componentType":5126,"count":2943,"type":"VEC3","name":"accessorNormals"},{"bufferView":2,"byteOffset":39216,"componentType":5126,"count":2943,"type":"VEC2","name":"accessorUVs"}],"bufferViews":[{"buffer":0,"byteLength":15692,"name":"bufferViewScalar"},{"buffer":0,"byteOffset":15692,"byteLength":188280,"byteStride":12,"name":"bufferViewFloatVec3"},{"buffer":0,"byteOffset":203972,"byteLength":62760,"byteStride":8,"name":"bufferViewFloatVec2"}],"buffers":[{"uri":"mask_off.bin","byteLength":266732}],"materials":[{"pbrMetallicRoughness":{"baseColorTexture":{"index":0},"metallicRoughnessTexture":{"index":1}},"name":"Fish_w_Mask_PackedMaterial0"},{"pbrMetallicRoughness":{"baseColorTexture":{"index":2},"metallicRoughnessTexture":{"index":3}},"name":"Fish_w_Mask_PackedMaterial1"}],"textures":[{"sampler":0,"source":0,"name":"Fish_w_Mask_Packed0_Diffuse.png"},{"sampler":0,"source":1,"name":"MR_Fish_w_Mask_Packed0_Diffuse.png_spec_Fish_w_Mask_Packed0_Specular_gloss_256.png"},{"sampler":0,"source":2,"name":"Fish_w_Mask_Packed1_Diffuse.png"},{"sampler":0,"source":3,"name":"MR_Fish_w_Mask_Packed1_Diffuse.png_spec_Fish_w_Mask_Packed1_Specular_gloss_256.png"}],"images":[{"uri":"./Fish_w_Mask_Packed0_Diffuse.png"},{"uri":"./MR_Fish_w_Mask_Packed0_Diffuse.png_spec_Fish_w_Mask_Packed0_Specular_gloss_256.png"},{"uri":"./Fish_w_Mask_Packed1_Diffuse.png"},{"uri":"./MR_Fish_w_Mask_Packed1_Diffuse.png_spec_Fish_w_Mask_Packed1_Specular_gloss_256.png"}],"samplers":[{"magFilter":9729,"minFilter":9987}]}