{"asset":{"version":"2.0","generator":"babylon.js glTF exporter for 3dsmax 2019 v20200312.5"},"scene":0,"scenes":[{"nodes":[0,1]}],"nodes":[{"mesh":0,"translation":[-0.000447089958,0.0,-0.0186099354],"rotation":[0.7071068,0.0,0.0,0.7071067],"name":"face_mesh"},{"name":"Default light"}],"meshes":[{"primitives":[{"attributes":{"POSITION":1,"NORMAL":2},"indices":0,"material":0}],"name":"face_mesh"}],"accessors":[{"bufferView":0,"componentType":5123,"count":52242,"type":"SCALAR","name":"accessorIndices"},{"bufferView":1,"componentType":5126,"count":52242,"max":[0.04391613,0.07423876,0.05349626],"min":[-0.0436929278,-0.07414862,-0.0530301742],"type":"VEC3","name":"accessorPositions"},{"bufferView":1,"byteOffset":626904,"componentType":5126,"count":52242,"type":"VEC3","name":"accessorNormals"}],"bufferViews":[{"buffer":0,"byteLength":104484,"name":"bufferViewScalar"},{"buffer":0,"byteOffset":104484,"byteLength":1253808,"byteStride":12,"name":"bufferViewFloatVec3"}],"buffers":[{"uri":"Metal_Head2.bin","byteLength":1358292}],"materials":[{"pbrMetallicRoughness":{"baseColorFactor":[0.0,0.0,0.0,1.0],"metallicFactor":0.0,"roughnessFactor":0.450053632},"doubleSided":true,"name":"03 - Default"}]}