{
    "asset" : {
        "generator" : "Khronos glTF Blender I/O v1.3.48",
        "version" : "2.0"
    },
    "scene" : 0,
    "scenes" : [
        {
            "name" : "Scene",
            "nodes" : [
                0,
                1,
                2,
                3,
                4,
                5,
                6
            ]
        }
    ],
    "nodes" : [
        {
            "name" : "Light",
            "rotation" : [
                0.16907575726509094,
                0.7558803558349609,
                -0.27217137813568115,
                0.570947527885437
            ],
            "translation" : [
                4.076245307922363,
                5.903861999511719,
                -1.0054539442062378
            ]
        },
        {
            "name" : "Camera",
            "rotation" : [
                0.483536034822464,
                0.33687159419059753,
                -0.20870360732078552,
                0.7804827094078064
            ],
            "translation" : [
                7.358891487121582,
                4.958309173583984,
                6.925790786743164
            ]
        },
        {
            "name" : "Empty"
        },
        {
            "mesh" : 0,
            "name" : "ASS",
            "scale" : [
                0.8999999761581421,
                0,
                0.8999999761581421
            ],
            "translation" : [
                -0.4800000786781311,
                0.44478651881217957,
                0.19999989867210388
            ]
        },
        {
            "mesh" : 1,
            "name" : "ASS.002",
            "scale" : [
                0.6100000143051147,
                0,
                0.6200000047683716
            ],
            "translation" : [
                -0.6899999976158142,
                0.13901662826538086,
                0.059933774173259735
            ]
        },
        {
            "mesh" : 2,
            "name" : "ASS.004",
            "scale" : [
                0.6700000166893005,
                0,
                0.5800000429153442
            ],
            "translation" : [
                0.5892883539199829,
                0.25725823640823364,
                -0.06302474439144135
            ]
        },
        {
            "name" : "Empty.001"
        }
    ],
    "materials" : [
        {
            "doubleSided" : true,
            "emissiveFactor" : [
                0,
                0,
                0
            ],
            "name" : "Material.003",
            "pbrMetallicRoughness" : {
                "baseColorFactor" : [
                    0.44130516052246094,
                    0.7101178765296936,
                    0.8000000715255737,
                    1
                ],
                "metallicFactor" : 0,
                "roughnessFactor" : 0.5
            }
        },
        {
            "doubleSided" : true,
            "emissiveFactor" : [
                0,
                0,
                0
            ],
            "name" : "Material.001",
            "pbrMetallicRoughness" : {
                "baseColorFactor" : [
                    0.44948095083236694,
                    0.3052206337451935,
                    0.8000000715255737,
                    1
                ],
                "metallicFactor" : 0,
                "roughnessFactor" : 0.5
            }
        },
        {
            "doubleSided" : true,
            "emissiveFactor" : [
                0,
                0,
                0
            ],
            "name" : "Material.004",
            "pbrMetallicRoughness" : {
                "baseColorFactor" : [
                    0.8000000715255737,
                    0.5655176639556885,
                    0.20206542313098907,
                    1
                ],
                "metallicFactor" : 0,
                "roughnessFactor" : 0.5
            }
        }
    ],
    "meshes" : [
        {
            "name" : "ASS",
            "primitives" : [
                {
                    "attributes" : {
                        "POSITION" : 0,
                        "NORMAL" : 1,
                        "TEXCOORD_0" : 2
                    },
                    "indices" : 3,
                    "material" : 0
                }
            ]
        },
        {
            "name" : "ASS.002",
            "primitives" : [
                {
                    "attributes" : {
                        "POSITION" : 4,
                        "NORMAL" : 5,
                        "TEXCOORD_0" : 6
                    },
                    "indices" : 7,
                    "material" : 1
                }
            ]
        },
        {
            "name" : "ASS.004",
            "primitives" : [
                {
                    "attributes" : {
                        "POSITION" : 8,
                        "NORMAL" : 9,
                        "TEXCOORD_0" : 10
                    },
                    "indices" : 11,
                    "material" : 2
                }
            ]
        }
    ],
    "accessors" : [
        {
            "bufferView" : 0,
            "componentType" : 5126,
            "count" : 1466,
            "max" : [
                0.21293967962265015,
                0,
                2.012144088745117
            ],
            "min" : [
                -0.1987018585205078,
                0,
                -0.6105527281761169
            ],
            "type" : "VEC3"
        },
        {
            "bufferView" : 1,
            "componentType" : 5126,
            "count" : 1466,
            "type" : "VEC3"
        },
        {
            "bufferView" : 2,
            "componentType" : 5126,
            "count" : 1466,
            "type" : "VEC2"
        },
        {
            "bufferView" : 3,
            "componentType" : 5123,
            "count" : 3303,
            "type" : "SCALAR"
        },
        {
            "bufferView" : 4,
            "componentType" : 5126,
            "count" : 72,
            "max" : [
                0.14432989060878754,
                0,
                0.800000011920929
            ],
            "min" : [
                -0.14432989060878754,
                0,
                -0.6453608274459839
            ],
            "type" : "VEC3"
        },
        {
            "bufferView" : 5,
            "componentType" : 5126,
            "count" : 72,
            "type" : "VEC3"
        },
        {
            "bufferView" : 6,
            "componentType" : 5126,
            "count" : 72,
            "type" : "VEC2"
        },
        {
            "bufferView" : 7,
            "componentType" : 5123,
            "count" : 174,
            "type" : "SCALAR"
        },
        {
            "bufferView" : 8,
            "componentType" : 5126,
            "count" : 163,
            "max" : [
                0.2299676537513733,
                0,
                0.6046712398529053
            ],
            "min" : [
                -0.22853036224842072,
                0,
                -0.5152713060379028
            ],
            "type" : "VEC3"
        },
        {
            "bufferView" : 9,
            "componentType" : 5126,
            "count" : 163,
            "type" : "VEC3"
        },
        {
            "bufferView" : 10,
            "componentType" : 5126,
            "count" : 163,
            "type" : "VEC2"
        },
        {
            "bufferView" : 11,
            "componentType" : 5123,
            "count" : 369,
            "type" : "SCALAR"
        }
    ],
    "bufferViews" : [
        {
            "buffer" : 0,
            "byteLength" : 17592,
            "byteOffset" : 0
        },
        {
            "buffer" : 0,
            "byteLength" : 17592,
            "byteOffset" : 17592
        },
        {
            "buffer" : 0,
            "byteLength" : 11728,
            "byteOffset" : 35184
        },
        {
            "buffer" : 0,
            "byteLength" : 6606,
            "byteOffset" : 46912
        },
        {
            "buffer" : 0,
            "byteLength" : 864,
            "byteOffset" : 53520
        },
        {
            "buffer" : 0,
            "byteLength" : 864,
            "byteOffset" : 54384
        },
        {
            "buffer" : 0,
            "byteLength" : 576,
            "byteOffset" : 55248
        },
        {
            "buffer" : 0,
            "byteLength" : 348,
            "byteOffset" : 55824
        },
        {
            "buffer" : 0,
            "byteLength" : 1956,
            "byteOffset" : 56172
        },
        {
            "buffer" : 0,
            "byteLength" : 1956,
            "byteOffset" : 58128
        },
        {
            "buffer" : 0,
            "byteLength" : 1304,
            "byteOffset" : 60084
        },
        {
            "buffer" : 0,
            "byteLength" : 738,
            "byteOffset" : 61388
        }
    ],
    "buffers" : [
        {
            "byteLength" : 62128,
            "uri" : "data:application/octet-stream;base64,"
        }
    ]
}
