{
    "asset" : {
        "generator" : "Khronos glTF Blender I/O v1.3.48",
        "version" : "2.0"
    },
    "scene" : 0,
    "scenes" : [
        {
            "name" : "Scene",
            "nodes" : [
                0,
                1,
                2,
                3,
                4,
                5
            ]
        }
    ],
    "nodes" : [
        {
            "name" : "Light",
            "rotation" : [
                0.16907575726509094,
                0.7558803558349609,
                -0.27217137813568115,
                0.570947527885437
            ],
            "translation" : [
                4.076245307922363,
                5.903861999511719,
                -1.0054539442062378
            ]
        },
        {
            "name" : "Camera",
            "rotation" : [
                0.483536034822464,
                0.33687159419059753,
                -0.20870360732078552,
                0.7804827094078064
            ],
            "translation" : [
                7.358891487121582,
                4.958309173583984,
                6.925790786743164
            ]
        },
        {
            "name" : "Empty"
        },
        {
            "mesh" : 0,
            "name" : "ASS",
            "scale" : [
                1,
                0,
                1
            ],
            "translation" : [
                0.43999987840652466,
                0.44478651881217957,
                1.1299998760223389
            ]
        },
        {
            "mesh" : 1,
            "name" : "ASS.002",
            "scale" : [
                1,
                0,
                1
            ],
            "translation" : [
                -0.8600000143051147,
                0.13901662826538086,
                -0.5900661945343018
            ]
        },
        {
            "mesh" : 2,
            "name" : "ASS.004",
            "scale" : [
                1,
                0,
                1
            ],
            "translation" : [
                -0.7507116794586182,
                0.25725823640823364,
                1.0869752168655396
            ]
        }
    ],
    "materials" : [
        {
            "doubleSided" : true,
            "emissiveFactor" : [
                0,
                0,
                0
            ],
            "name" : "Material.003",
            "pbrMetallicRoughness" : {
                "baseColorFactor" : [
                    0.44130516052246094,
                    0.7101178765296936,
                    0.8000000715255737,
                    1
                ],
                "metallicFactor" : 0,
                "roughnessFactor" : 0.5
            }
        },
        {
            "doubleSided" : true,
            "emissiveFactor" : [
                0,
                0,
                0
            ],
            "name" : "Material.001",
            "pbrMetallicRoughness" : {
                "baseColorFactor" : [
                    0.44948095083236694,
                    0.3052206337451935,
                    0.8000000715255737,
                    1
                ],
                "metallicFactor" : 0,
                "roughnessFactor" : 0.5
            }
        },
        {
            "doubleSided" : true,
            "emissiveFactor" : [
                0,
                0,
                0
            ],
            "name" : "Material.004",
            "pbrMetallicRoughness" : {
                "baseColorFactor" : [
                    0.8000000715255737,
                    0.5655176639556885,
                    0.20206542313098907,
                    1
                ],
                "metallicFactor" : 0,
                "roughnessFactor" : 0.5
            }
        }
    ],
    "meshes" : [
        {
            "name" : "ASS",
            "primitives" : [
                {
                    "attributes" : {
                        "POSITION" : 0,
                        "NORMAL" : 1,
                        "TEXCOORD_0" : 2
                    },
                    "indices" : 3,
                    "material" : 0
                }
            ]
        },
        {
            "name" : "ASS.002",
            "primitives" : [
                {
                    "attributes" : {
                        "POSITION" : 4,
                        "NORMAL" : 5,
                        "TEXCOORD_0" : 6
                    },
                    "indices" : 7,
                    "material" : 1
                }
            ]
        },
        {
            "name" : "ASS.004",
            "primitives" : [
                {
                    "attributes" : {
                        "POSITION" : 8,
                        "NORMAL" : 9,
                        "TEXCOORD_0" : 10
                    },
                    "indices" : 11,
                    "material" : 2
                }
            ]
        }
    ],
    "accessors" : [
        {
            "bufferView" : 0,
            "componentType" : 5126,
            "count" : 342,
            "max" : [
                0.6662479043006897,
                0,
                0.004187604412436485
            ],
            "min" : [
                -0.024706866592168808,
                0,
                -0.5795645117759705
            ],
            "type" : "VEC3"
        },
        {
            "bufferView" : 1,
            "componentType" : 5126,
            "count" : 342,
            "type" : "VEC3"
        },
        {
            "bufferView" : 2,
            "componentType" : 5126,
            "count" : 342,
            "type" : "VEC2"
        },
        {
            "bufferView" : 3,
            "componentType" : 5123,
            "count" : 813,
            "type" : "SCALAR"
        },
        {
            "bufferView" : 4,
            "componentType" : 5126,
            "count" : 94,
            "max" : [
                0.8960824608802795,
                0,
                0
            ],
            "min" : [
                0.025979381054639816,
                0,
                -0.647010326385498
            ],
            "type" : "VEC3"
        },
        {
            "bufferView" : 5,
            "componentType" : 5126,
            "count" : 94,
            "type" : "VEC3"
        },
        {
            "bufferView" : 6,
            "componentType" : 5126,
            "count" : 94,
            "type" : "VEC2"
        },
        {
            "bufferView" : 7,
            "componentType" : 5123,
            "count" : 216,
            "type" : "SCALAR"
        },
        {
            "bufferView" : 8,
            "componentType" : 5126,
            "count" : 174,
            "max" : [
                0.732662558555603,
                0,
                0.0046712183393538
            ],
            "min" : [
                0.0028745958115905523,
                0,
                -0.5199425220489502
            ],
            "type" : "VEC3"
        },
        {
            "bufferView" : 9,
            "componentType" : 5126,
            "count" : 174,
            "type" : "VEC3"
        },
        {
            "bufferView" : 10,
            "componentType" : 5126,
            "count" : 174,
            "type" : "VEC2"
        },
        {
            "bufferView" : 11,
            "componentType" : 5123,
            "count" : 369,
            "type" : "SCALAR"
        }
    ],
    "bufferViews" : [
        {
            "buffer" : 0,
            "byteLength" : 4104,
            "byteOffset" : 0
        },
        {
            "buffer" : 0,
            "byteLength" : 4104,
            "byteOffset" : 4104
        },
        {
            "buffer" : 0,
            "byteLength" : 2736,
            "byteOffset" : 8208
        },
        {
            "buffer" : 0,
            "byteLength" : 1626,
            "byteOffset" : 10944
        },
        {
            "buffer" : 0,
            "byteLength" : 1128,
            "byteOffset" : 12572
        },
        {
            "buffer" : 0,
            "byteLength" : 1128,
            "byteOffset" : 13700
        },
        {
            "buffer" : 0,
            "byteLength" : 752,
            "byteOffset" : 14828
        },
        {
            "buffer" : 0,
            "byteLength" : 432,
            "byteOffset" : 15580
        },
        {
            "buffer" : 0,
            "byteLength" : 2088,
            "byteOffset" : 16012
        },
        {
            "buffer" : 0,
            "byteLength" : 2088,
            "byteOffset" : 18100
        },
        {
            "buffer" : 0,
            "byteLength" : 1392,
            "byteOffset" : 20188
        },
        {
            "buffer" : 0,
            "byteLength" : 738,
            "byteOffset" : 21580
        }
    ],
    "buffers" : [
        {
            "byteLength" : 22320,
            "uri" : "data:application/octet-stream;base64,"
        }
    ]
}
