{"asset":{"version":"2.0","generator":"babylon.js glTF exporter for 3dsmax 2019 v20200312.5"},"scene":0,"scenes":[{"nodes":[0,1]}],"nodes":[{"mesh":0,"translation":[-0.0332308672,0.0246621817,0.0231133178],"rotation":[0.0,0.0,0.7119246,0.702255964],"name":"Body"},{"name":"Default light"}],"meshes":[{"primitives":[{"attributes":{"POSITION":1,"NORMAL":2,"TEXCOORD_0":3},"indices":0,"material":0}],"name":"Body"}],"accessors":[{"bufferView":0,"componentType":5123,"count":9312,"type":"SCALAR","name":"accessorIndices"},{"bufferView":1,"componentType":5126,"count":9312,"max":[0.0448715836,0.1415021,0.299415559],"min":[-1.34180582,-0.175253719,-0.164000869],"type":"VEC3","name":"accessorPositions"},{"bufferView":1,"byteOffset":111744,"componentType":5126,"count":9312,"type":"VEC3","name":"accessorNormals"},{"bufferView":2,"componentType":5126,"count":9312,"type":"VEC2","name":"accessorUVs"}],"bufferViews":[{"buffer":0,"byteLength":18624,"name":"bufferViewScalar"},{"buffer":0,"byteOffset":18624,"byteLength":223488,"byteStride":12,"name":"bufferViewFloatVec3"},{"buffer":0,"byteOffset":242112,"byteLength":74496,"byteStride":8,"name":"bufferViewFloatVec2"}],"buffers":[{"uri":"Severed_Arm.bin","byteLength":316608}],"materials":[{"pbrMetallicRoughness":{"baseColorTexture":{"index":0},"metallicRoughnessTexture":{"index":1}},"name":"Severed_Arm_PackedMaterial0"}],"textures":[{"sampler":0,"source":0,"name":"Severed_Arm_Packed0_Diffuse.png"},{"sampler":0,"source":1,"name":"MR_Severed_Arm_Packed0_Diffuse.png_spec_Severed_Arm_Packed0_Specular_gloss_256.png"}],"images":[{"uri":"./Severed_Arm_Packed0_Diffuse.png"},{"uri":"./MR_Severed_Arm_Packed0_Diffuse.png_spec_Severed_Arm_Packed0_Specular_gloss_256.png"}],"samplers":[{"magFilter":9729,"minFilter":9987}]}