{"asset":{"version":"2.0","generator":"babylon.js glTF exporter for 3dsmax 2019 v20200312.5"},"scene":0,"scenes":[{"nodes":[0,1]}],"nodes":[{"mesh":0,"translation":[-0.057500124,1.08665383,0.0148001621],"rotation":[0.00366886915,-0.03118121,0.999114156,-0.0280221459],"scale":[11.3619251,11.3619242,11.3619251],"name":"mmGroup0"},{"name":"Default light"}],"meshes":[{"primitives":[{"attributes":{"POSITION":1,"NORMAL":2,"TEXCOORD_0":3},"indices":0,"material":0}],"name":"mmGroup0"}],"accessors":[{"bufferView":0,"componentType":5125,"count":3809268,"type":"SCALAR","name":"accessorIndices"},{"bufferView":1,"componentType":5126,"count":3809268,"max":[0.127330229,0.109978244,0.127041057],"min":[-0.127398357,-0.109972961,-0.127095565],"type":"VEC3","name":"accessorPositions"},{"bufferView":1,"byteOffset":45711216,"componentType":5126,"count":3809268,"type":"VEC3","name":"accessorNormals"},{"bufferView":2,"componentType":5126,"count":3809268,"type":"VEC2","name":"accessorUVs"}],"bufferViews":[{"buffer":0,"byteLength":15237072,"name":"bufferViewScalar"},{"buffer":0,"byteOffset":15237072,"byteLength":91422432,"byteStride":12,"name":"bufferViewFloatVec3"},{"buffer":0,"byteOffset":106659504,"byteLength":30474144,"byteStride":8,"name":"bufferViewFloatVec2"}],"buffers":[{"uri":"WiredHeart.bin","byteLength":137133648}],"materials":[{"pbrMetallicRoughness":{"baseColorFactor":[0.0,0.0,0.0,1.0],"metallicFactor":0.0,"roughnessFactor":0.245269522},"name":"07 - Default"}]}